<svg xmlns="http://www.w3.org/2000/svg" width="165" height="50" viewBox="0 0 165 50">
  <path fill="#FFF" d="M124.81 44.116l.94.48V18.45l-.94-.555m13.44-4.435l.055 26.162.658-.304.553.088v-26.11l-.45-.153m14.697 4.22l-1.21.66v26.612l1.21-.713"/>
  <path fill="none" d="M142.385 13.545l-3.32-1.357-13.332 5.452-9.266-5.03v27.75l9.42 5.113 13.076-5.327h.207l3.18 1.282 9.896 4.045 9.422-5.112V12.61l-9.27 5.03-3.332-1.36"/>
  <path fill="#FFF" d="M152.246 14.81l-2.235-.914-.94 2.384 3.33 1.36 9.27-5.03v27.75l-9.42 5.113-9.89-4.045-3.18-1.282h-.205L125.9 45.473l-9.42-5.112V12.61l9.265 5.03 13.33-5.452 3.32 1.357-1.33-3.313-1.99-.814-13.18 5.393-11.983-6.5v33.58l11.83 6.42 13.334-5.45 13.33 5.45 11.83-6.42V8.307"/>
  <path fill="#FFF" d="M146.28 1.48c-2.87 0-5.202 2.33-5.202 5.202 0 .535.107 1.038.253 1.525h-.01l4.97 12.408 5.095-12.84h-.01c.076-.35.12-.717.12-1.093-.002-2.873-2.33-5.202-5.204-5.202zm0 7.677c-1.226 0-2.227-.998-2.227-2.227 0-1.23 1-2.23 2.227-2.23 1.23 0 2.23.998 2.23 2.23 0 1.226-1 2.227-2.23 2.227z"/>
  <path d="M13.6 16.65v1.018H7.98V36.3h-.803V17.668h-5.62V16.65H13.6zM26.31 36.3h-.802v-9.823H17.48V36.3h-.803V16.65h.803v8.81h8.028v-8.81h.803V36.3zm15.468-1.998c-.98 1.56-2.587 2.338-4.817 2.338s-3.82-.802-4.79-2.405-1.44-4.19-1.44-7.758c0-3.57.48-6.155 1.45-7.76.966-1.602 2.56-2.404 4.79-2.404 2.59 0 4.347 1.073 5.275 3.22l-6.556 6.945h-1.26l6.77-7.15c-.785-1.33-2.194-1.998-4.23-1.998-.89 0-1.64.12-2.247.355-.606.237-1.163.678-1.672 1.32-.506.645-.886 1.583-1.135 2.813-.25 1.23-.375 2.784-.375 4.66s.123 3.426.373 4.657c.25 1.23.63 2.168 1.137 2.812.51.644 1.067 1.084 1.674 1.32.606.237 1.355.356 2.248.356 2.037 0 3.446-.666 4.23-1.998l.59.677zm21.81 1.998h-.803v-9.823h-8.028V36.3h-.803V16.65h.803v8.81h8.028v-8.81h.803V36.3zm6.502-1.016h8.724L73.328 18.92 67.494 36.3h-.856l6.69-19.988 6.69 19.99H70.09v-1.018zm19.617-6.302l-.402-.88 1.5-1.085c1.23-.857 1.846-2.224 1.846-4.1 0-3.5-2.1-5.25-6.31-5.25h-2.46v25.41h-.8V16.65h3.266c2.355 0 4.13.55 5.326 1.644 1.196 1.096 1.794 2.637 1.794 4.625 0 2.25-.75 3.91-2.25 4.98l-1.5 1.08zm11.613-12.738c2.212 0 3.782.622 4.71 1.864l-.535.745c-.856-1.062-2.212-1.592-4.067-1.592-2.783 0-4.176 1.41-4.176 4.21 0 1.087.34 1.95 1.018 2.59.678.648 1.505 1.14 2.48 1.48.977.34 1.95.696 2.918 1.068.968.373 1.79.97 2.47 1.795s1.017 1.903 1.017 3.235c0 1.56-.508 2.8-1.525 3.726-1.018.926-2.488 1.39-4.416 1.39-.945 0-1.877-.16-2.796-.475-.92-.317-1.602-.78-2.048-1.39l.535-.746c.91 1.06 2.31 1.59 4.202 1.59 1.73 0 3.037-.41 3.92-1.22.884-.817 1.325-1.76 1.325-2.85 0-1.13-.34-2.044-1.018-2.744s-1.506-1.23-2.484-1.58c-.98-.356-1.952-.716-2.918-1.087-.965-.37-1.787-.95-2.465-1.74-.678-.79-1.018-1.83-1.018-3.117 0-1.74.46-3.032 1.37-3.88.92-.846 2.08-1.27 3.49-1.27z" fill="none" stroke="#FFF" stroke-width="1.5" stroke-miterlimit="10"/>
</svg>
